# 
# Id: cu-arabic12.bdf,v 1.5 2000/12/06 21:58:14 mleisher Exp $
# 
# Copyright 1997, 1998, 1999 Computing Research Labs, New Mexico State
# University
# 
# Permission is hereby granted, free of charge, to any person
# obtaining a copy of this software and associated documentation
# files (the "Software"), to deal in the Software without
# restriction, including without limitation the rights to use,
# copy, modify, merge, publish, distribute, sublicense, and/or
# sell copies of the Software, and to permit persons to whom the
# Software is furnished to do so, subject to the following
# conditions:
# 
# The above copyright notice and this permission notice shall be
# included in all copies or substantial portions of the Software.
# 
# THE SOFTWARE IS PROVIDED "AS IS", WITHOUT WARRANTY OF ANY KIND,
# EXPRESS OR IMPLIED, INCLUDING BUT NOT LIMITED TO THE WARRANTIES
# OF MERCHANTABILITY, FITNESS FOR A PARTICULAR PURPOSE AND
# NONINFRINGEMENT.  IN NO EVENT SHALL THE COMPUTING RESEARCH LAB
# OR NEW MEXICO STATE UNIVERSITY BE LIABLE FOR ANY CLAIM, DAMAGES
# OR OTHER LIABILITY, WHETHER IN AN ACTION OF CONTRACT, TORT OR
# OTHERWISE, ARISING FROM, OUT OF OR IN CONNECTION WITH THE
# SOFTWARE OR THE USE OR OTHER DEALINGS IN THE SOFTWARE.
# 
# This font contains the contextual glyph forms that are not encoded
# in Unicode.
# 

name: ClearlyU Arabic Extra Medium 12
family: ClearlyU Arabic Extra
foundry: MUTT
point-size: 12
weight: medium
dpi: 100 100
spacing: proportional
x-height: 7
cap-height: 11
ascent: 17
descent: 9
offset: -1 -10
tracking: -2
encoding: fontspecific
converter: monobit v0.12
source-name: cu-arabic12.bdf
source-format: BDF v2.1
bdf.-XMBDFED-INFO: "Edited with xmbdfed 4.3."

0x00:
uni0000:
    ........
    ........
    ........
    ........
    ........
    ........
    ........
    ........
    ........
    ........
    ...@@...
    ..@.....
    ...@@...
    @@@.....
    ........
    ...@....
    ...@@...
    ...@....
    ...@....
    ...@....
    ...@....
    ...@....
    ...@....
    ...@....
    ...@....
    ........
    ........
    ........
    ........

0x01:
uni0001:
    ........
    ........
    ........
    ........
    ........
    ........
    ........
    ........
    ........
    ........
    ...@@...
    ..@.....
    ...@@...
    @@@.....
    ........
    ........
    ...@....
    ...@@...
    ...@....
    ...@....
    ...@....
    ...@....
    ...@....
    ...@....
    ...@....
    ....@@..
    ........
    ........
    ........

0x02:
uni0002:
    ........
    ........
    ........
    ........
    ........
    ...@....
    ...@@...
    ...@....
    ...@....
    ...@....
    ...@....
    ...@....
    ...@....
    ...@....
    ...@....
    ........
    ...@@...
    ..@.....
    ...@@...
    @@@.....
    ........
    ........
    ........
    ........
    ........
    ........
    ........
    ........
    ........

0x03:
uni0003:
    ........
    ........
    ........
    ........
    ...@....
    ...@@...
    ...@....
    ...@....
    ...@....
    ...@....
    ...@....
    ...@....
    ...@....
    ....@@..
    ........
    ........
    ...@@...
    ..@.....
    ...@@...
    @@@.....
    ........
    ........
    ........
    ........
    ........
    ........
    ........
    ........
    ........

0x04:
uni0004:
    .........
    .........
    .........
    .........
    .........
    .........
    .........
    .........
    .........
    .........
    .......@@
    ......@..
    .......@@
    ...@..@..
    ...@@....
    ...@.....
    ...@.....
    ...@.....
    ...@.....
    ...@.....
    ...@.....
    ...@.....
    ...@.....
    .........
    .........
    .........
    .........
    .........
    .........

0x05:
uni0005:
    .........
    .........
    .........
    .........
    .........
    .........
    .........
    .........
    .........
    .........
    .......@@
    ......@..
    ...@...@@
    ...@..@..
    ...@@....
    ...@.....
    ...@.....
    ...@.....
    ...@.....
    ...@.....
    ...@.....
    ...@.....
    ....@@...
    .........
    .........
    .........
    .........
    .........
    .........

0x06:
uni0006:
    ............
    ............
    ............
    ............
    ............
    ............
    ............
    ........@@..
    .......@....
    ........@@..
    .......@....
    ............
    ............
    ......@.....
    .....@.@....
    .....@.@....
    .....@@@....
    .......@....
    .......@....
    .@....@.....
    ..@@@@......
    ............
    ............
    ............
    ............
    ............
    ............
    ............
    ............

0x07:
uni0007:
    .............
    .............
    .............
    .............
    .............
    .............
    .........@@..
    ........@....
    .........@@..
    ........@....
    .............
    .............
    .......@.....
    ......@.@....
    ......@.@....
    .......@@@@..
    ........@....
    ........@....
    ..@....@.....
    ...@@@@......
    .............
    .............
    .............
    .............
    .............
    .............
    .............
    .............
    .............

0x08:
uni0008:
    .................
    .................
    .................
    .................
    .................
    .................
    .................
    .................
    .............@@..
    ............@....
    .............@@..
    ............@....
    .................
    .................
    .........@@@@....
    ........@........
    ...@....@........
    ..@......@@......
    ..@........@.....
    ..@........@.....
    ...@.....@@......
    ....@@@@@........
    .................
    .................
    .................
    .................
    .................
    .................
    .................

0x09:
uni0009:
    ................
    ................
    ................
    ................
    ................
    .............@@.
    ............@...
    .............@@.
    ............@...
    ................
    ................
    ...@.....@@@@...
    ..@.....@.......
    ..@......@@.....
    ..@........@....
    ...@.....@@.....
    ....@@@@@.......
    ................
    ................
    ................
    ................
    ................
    ................
    ................
    ................
    ................
    ................
    ................
    ................

0x0a:
uni000A:
    ..........
    ..........
    ..........
    ..........
    ..........
    ..........
    ..........
    ..........
    ..........
    ..........
    ......@@..
    .....@....
    ......@@..
    .....@....
    ..........
    ..........
    ....@.....
    .....@....
    .....@....
    .....@....
    .@@@@.....
    ..........
    ..........
    ..........
    ..........
    ..........
    ..........
    ..........
    ..........

0x0b:
uni000B:
    .........
    .........
    .........
    .........
    .........
    .........
    .........
    .........
    .........
    .........
    ......@@.
    .....@...
    ......@@.
    .....@...
    .........
    .........
    ....@....
    ....@....
    ....@....
    .@@@.@@..
    .........
    .........
    .........
    .........
    .........
    .........
    .........
    .........
    .........

0x0c:
uni000C:
    ................
    ................
    ................
    ................
    ................
    ................
    ......@.@.......
    ......@.@.......
    .............@..
    ..@..........@..
    .@...........@..
    .@...........@..
    .@@........@@...
    ..@@@@@@@@@.....
    ......@@........
    .....@..@.......
    ......@@........
    ................
    ................
    ................
    ................
    ................
    ................
    ................
    ................
    ................
    ................
    ................
    ................

0x0d:
uni000D:
    ..................
    ..................
    ..................
    ..................
    ..................
    ..................
    .......@.@........
    .......@.@........
    ..................
    ...@..............
    ..@..........@....
    ..@..........@....
    ..@@.......@@.@@@.
    ...@@@@@@@@.......
    .......@@.........
    ......@..@........
    .......@@.........
    ..................
    ..................
    ..................
    ..................
    ..................
    ..................
    ..................
    ..................
    ..................
    ..................
    ..................
    ..................

0x0e:
uni000E:
    .........
    .........
    .........
    .........
    .........
    .........
    .........
    ...@.@...
    ...@.@...
    .........
    ....@....
    .....@...
    .....@...
    .....@...
    .@@@@....
    ..@@.....
    .@..@....
    ..@@.....
    .........
    .........
    .........
    .........
    .........
    .........
    .........
    .........
    .........
    .........
    .........

0x0f:
uni000F:
    .........
    .........
    .........
    .........
    .........
    .........
    .........
    ...@.@...
    ...@.@...
    .........
    ....@....
    ....@....
    ....@....
    .@@@.@@..
    ..@@.....
    .@..@....
    ..@@.....
    .........
    .........
    .........
    .........
    .........
    .........
    .........
    .........
    .........
    .........
    .........
    .........

0x10:
uni0010:
    .................
    .................
    .................
    .................
    .................
    .................
    .................
    .................
    .................
    .......@.@.......
    .......@.@.......
    ........@........
    ........@........
    ..............@..
    ...@..........@..
    ..@...........@..
    ..@...........@..
    ..@@........@@...
    ...@@@@@@@@@.....
    .................
    .................
    .................
    .................
    .................
    .................
    .................
    .................
    .................
    .................

0x11:
uni0011:
    ..................
    ..................
    ..................
    ..................
    ..................
    ..................
    ..................
    ..................
    ..................
    .......@.@........
    .......@.@........
    ........@.........
    ........@.........
    ..................
    ...@..............
    ..@..........@....
    ..@..........@....
    ..@@.......@@.@@@.
    ...@@@@@@@@.......
    ..................
    ..................
    ..................
    ..................
    ..................
    ..................
    ..................
    ..................
    ..................
    ..................

0x12:
uni0012:
    .........
    .........
    .........
    .........
    .........
    .........
    .........
    .........
    .........
    .........
    ...@.@...
    ...@.@...
    ....@....
    ....@....
    .........
    ....@....
    .....@...
    .....@...
    .....@...
    .@@@@....
    .........
    .........
    .........
    .........
    .........
    .........
    .........
    .........
    .........

0x13:
uni0013:
    .........
    .........
    .........
    .........
    .........
    .........
    .........
    .........
    .........
    .........
    ...@.@...
    ...@.@...
    ....@....
    ....@....
    .........
    .........
    ....@....
    ....@....
    ....@....
    .@@@.@@..
    .........
    .........
    .........
    .........
    .........
    .........
    .........
    .........
    .........

0x14:
uni0014:
    ..............
    ..............
    ..............
    ..............
    ......@@......
    .....@........
    ......@@......
    .....@........
    ..............
    ..............
    ...@@@........
    ..@...@@@@....
    ....@@@.......
    ...@..........
    ...@..........
    ..@...........
    ..@...........
    ..@...........
    ...@..........
    ...@@.....@@..
    .....@@@@@....
    ..............
    ..............
    ..............
    ..............
    ..............
    ..............
    ..............
    ..............

0x15:
uni0015:
    .............
    .............
    .............
    .............
    .......@@....
    ......@......
    .......@@....
    ......@......
    .............
    .............
    ...@@@.......
    ..@...@@@@...
    ....@@@.@....
    ...@....@....
    ...@.....@@@.
    ..@..........
    ..@..........
    ..@..........
    ...@.........
    ...@@.....@@.
    .....@@@@@...
    .............
    .............
    .............
    .............
    .............
    .............
    .............
    .............

0x16:
uni0016:
    .............
    .............
    .............
    .............
    .............
    .............
    .............
    .............
    .............
    .............
    .......@@....
    ......@......
    .......@@....
    ......@......
    .............
    .............
    ...@@@.......
    ..@...@@@@...
    .....@@......
    ....@........
    .@@@.........
    .............
    .............
    .............
    .............
    .............
    .............
    .............
    .............

0x17:
uni0017:
    .............
    .............
    .............
    .............
    .............
    .............
    .............
    .............
    .............
    .............
    .......@@....
    ......@......
    .......@@....
    ......@......
    .............
    .............
    ...@@@.......
    ..@...@@@@...
    .....@@.@....
    ....@...@....
    .@@@.....@@..
    .............
    .............
    .............
    .............
    .............
    .............
    .............
    .............

0x18:
uni0018:
    ..............
    ..............
    ..............
    ..............
    ......@.......
    ......@.......
    ..............
    ......@.......
    ......@.......
    ..............
    ..............
    ...@@@........
    ..@...@@@@....
    ....@@@.......
    ...@..........
    ...@..........
    ..@...........
    ..@...........
    ..@...........
    ...@..........
    ...@@.....@@..
    .....@@@@@....
    ..............
    ..............
    ..............
    ..............
    ..............
    ..............
    ..............

0x19:
uni0019:
    .............
    .............
    .............
    .............
    ......@......
    ......@......
    .............
    ......@......
    ......@......
    .............
    .............
    ...@@@.......
    ..@...@@@@...
    ....@@@.@....
    ...@....@....
    ...@.....@@@.
    ..@..........
    ..@..........
    ..@..........
    ...@.........
    ...@@.....@@.
    .....@@@@@...
    .............
    .............
    .............
    .............
    .............
    .............
    .............

0x1a:
uni001A:
    .............
    .............
    .............
    .............
    .............
    .............
    .............
    .............
    .............
    .............
    ......@......
    ......@......
    .............
    ......@......
    ......@......
    .............
    .............
    ...@@@.......
    ..@...@@@@...
    .....@@......
    ....@........
    .@@@.........
    .............
    .............
    .............
    .............
    .............
    .............
    .............

0x1b:
uni001B:
    .............
    .............
    .............
    .............
    .............
    .............
    .............
    .............
    .............
    .............
    ......@......
    ......@......
    .............
    ......@......
    ......@......
    .............
    .............
    ...@@@.......
    ..@...@@@@...
    .....@@.@....
    ....@...@....
    .@@@.....@@..
    .............
    .............
    .............
    .............
    .............
    .............
    .............

0x1c:
uni001C:
    ..............
    ..............
    ..............
    ..............
    ......@.......
    ......@.......
    .....@.@......
    .....@.@......
    ..............
    ..............
    ...@@@........
    ..@...@@@@....
    ....@@@.......
    ...@..........
    ...@..........
    ..@...........
    ..@...........
    ..@...........
    ...@..........
    ...@@.....@@..
    .....@@@@@....
    ..............
    ..............
    ..............
    ..............
    ..............
    ..............
    ..............
    ..............

0x1d:
uni001D:
    .............
    .............
    .............
    .............
    ......@......
    ......@......
    .....@.@.....
    .....@.@.....
    .............
    .............
    ...@@@.......
    ..@...@@@@...
    ....@@@.@....
    ...@....@....
    ...@.....@@@.
    ..@..........
    ..@..........
    ..@..........
    ...@.........
    ...@@.....@@.
    .....@@@@@...
    .............
    .............
    .............
    .............
    .............
    .............
    .............
    .............

0x1e:
uni001E:
    .............
    .............
    .............
    .............
    .............
    .............
    .............
    .............
    .............
    .............
    ......@......
    ......@......
    .....@.@.....
    .....@.@.....
    .............
    .............
    ...@@@.......
    ..@...@@@@...
    .....@@......
    ....@........
    .@@@.........
    .............
    .............
    .............
    .............
    .............
    .............
    .............
    .............

0x1f:
uni001F:
    .............
    .............
    .............
    .............
    .............
    .............
    .............
    .............
    .............
    .............
    ......@......
    ......@......
    .....@.@.....
    .....@.@.....
    .............
    .............
    ...@@@.......
    ..@...@@@@...
    .....@@.@....
    ....@...@....
    .@@@.....@@..
    .............
    .............
    .............
    .............
    .............
    .............
    .............
    .............

0x20:
uni0020:
    .........
    .........
    .........
    .........
    .........
    .........
    .........
    ....@....
    .....@...
    ......@..
    ......@..
    ......@..
    ..@@@@...
    ....@....
    ...@.@...
    ....@....
    .........
    .........
    .........
    .........
    .........
    .........
    .........
    .........
    .........
    .........
    .........
    .........
    .........

0x21:
uni0021:
    ..........
    ..........
    ..........
    ..........
    ..........
    ..........
    ..........
    ..........
    .....@....
    .....@....
    ......@...
    ......@...
    ......@...
    ..@..@@...
    ...@@..@@.
    ...@.@....
    ....@.....
    ..........
    ..........
    ..........
    ..........
    ..........
    ..........
    ..........
    ..........
    ..........
    ..........
    ..........
    ..........

0x22:
uni0022:
    .........
    .........
    .........
    .........
    .........
    .........
    ....@....
    .....@...
    ......@..
    ......@..
    ......@..
    ..@@@@...
    .........
    .........
    ....@....
    ....@....
    .........
    .........
    .........
    .........
    .........
    .........
    .........
    .........
    .........
    .........
    .........
    .........
    .........

0x23:
uni0023:
    ..........
    ..........
    ..........
    ..........
    ..........
    ..........
    .....@....
    .....@....
    ......@...
    ......@...
    ......@...
    ..@..@@...
    ...@@..@@.
    ..........
    ..........
    ....@.....
    ....@.....
    ..........
    ..........
    ..........
    ..........
    ..........
    ..........
    ..........
    ..........
    ..........
    ..........
    ..........
    ..........

0x24:
uni0024:
    .........
    .........
    .........
    .........
    .........
    .........
    ...@.....
    ...@.....
    ...@@@...
    ...@@@...
    .........
    .........
    ....@....
    .....@...
    ......@..
    ......@..
    ......@..
    ..@@@@...
    .........
    .........
    ....@....
    ....@....
    .........
    .........
    .........
    .........
    .........
    .........
    .........

0x25:
uni0025:
    ..........
    ..........
    ..........
    ..........
    ..........
    ..........
    ...@......
    ...@......
    ...@@@....
    ...@@@....
    ..........
    ..........
    .....@....
    .....@....
    ......@...
    ......@...
    ......@...
    ..@..@@...
    ...@@..@@.
    ..........
    ..........
    ....@.....
    ....@.....
    ..........
    ..........
    ..........
    ..........
    ..........
    ..........

0x26:
uni0026:
    .........
    .........
    .........
    .........
    .........
    .........
    .........
    .........
    .........
    .........
    ...@.@...
    ...@.@...
    ....@....
    ....@....
    .........
    .........
    ....@....
    .....@...
    ......@..
    ......@..
    ......@..
    ..@@@@...
    .........
    .........
    .........
    .........
    .........
    .........
    .........

0x27:
uni0027:
    ..........
    ..........
    ..........
    ..........
    ..........
    ..........
    ..........
    ..........
    ..........
    ..........
    ...@.@....
    ...@.@....
    ....@.....
    ....@.....
    ..........
    ..........
    .....@....
    .....@....
    ......@...
    ......@...
    ......@...
    ..@..@@...
    ...@@..@@.
    ..........
    ..........
    ..........
    ..........
    ..........
    ..........

0x28:
uni0028:
    .........
    .........
    .........
    .........
    .........
    .........
    .........
    .........
    .........
    .........
    ...@.@...
    ...@.@...
    .........
    ...@.@...
    ...@.@...
    .........
    .........
    ....@....
    .....@...
    ......@..
    ......@..
    ......@..
    ..@@@@...
    .........
    .........
    .........
    .........
    .........
    .........

0x29:
uni0029:
    ..........
    ..........
    ..........
    ..........
    ..........
    ..........
    ..........
    ..........
    ..........
    ..........
    ...@.@....
    ...@.@....
    ..........
    ...@.@....
    ...@.@....
    ..........
    ..........
    .....@....
    .....@....
    ......@...
    ......@...
    ......@...
    ..@..@@...
    ...@@..@@.
    ..........
    ..........
    ..........
    ..........
    ..........

0x2a:
uni002A:
    ...........
    ...........
    ...........
    ...........
    ...........
    ...........
    ....@...@..
    .....@.@...
    ......@....
    ...........
    ...........
    ......@....
    ......@....
    .......@...
    .......@...
    .......@...
    ......@@...
    .....@@....
    ..@@@@.....
    ...........
    ...........
    ...........
    ...........
    ...........
    ...........
    ...........
    ...........
    ...........
    ...........

0x2b:
uni002B:
    ............
    ............
    ............
    ............
    ............
    ....@...@...
    .....@.@....
    ......@.....
    ............
    ............
    ......@.....
    ......@@....
    .......@@@..
    .......@....
    .......@....
    ......@@....
    .....@@.....
    ..@@@@......
    ............
    ............
    ............
    ............
    ............
    ............
    ............
    ............
    ............
    ............
    ............

0x2c:
uni002C:
    ..........
    ..........
    ..........
    ..........
    ..........
    ......@...
    ......@...
    .......@..
    .......@..
    .......@..
    ......@@..
    .....@@...
    ..@@@@.@..
    ......@@..
    ..........
    ..........
    ..........
    ..........
    ..........
    ..........
    ..........
    ..........
    ..........
    ..........
    ..........
    ..........
    ..........
    ..........
    ..........

0x2d:
uni002D:
    ............
    ............
    ............
    ............
    ......@.....
    ......@@....
    .......@@@..
    .......@....
    .......@....
    ......@@....
    .....@@.....
    ..@@@@.@....
    ......@@....
    ............
    ............
    ............
    ............
    ............
    ............
    ............
    ............
    ............
    ............
    ............
    ............
    ............
    ............
    ............
    ............

0x2e:
uni002E:
    ..........
    ..........
    ..........
    ..........
    ......@...
    ......@...
    .......@..
    .......@..
    .......@..
    ......@@..
    .....@@...
    ..@@@@....
    .......@..
    .......@..
    ..........
    ..........
    ..........
    ..........
    ..........
    ..........
    ..........
    ..........
    ..........
    ..........
    ..........
    ..........
    ..........
    ..........
    ..........

0x2f:
uni002F:
    ............
    ............
    ............
    ......@.....
    ......@@....
    .......@@@..
    .......@....
    .......@....
    ......@@....
    .....@@.....
    ..@@@@......
    .......@....
    .......@....
    ............
    ............
    ............
    ............
    ............
    ............
    ............
    ............
    ............
    ............
    ............
    ............
    ............
    ............
    ............
    ............

0x30:
uni0030:
    ..........
    ..........
    ......@...
    ......@...
    .......@..
    .......@..
    .......@..
    ......@@..
    .....@@...
    ..@@@@....
    ..........
    ...@...@..
    ....@.@...
    .....@....
    ..........
    ..........
    ..........
    ..........
    ..........
    ..........
    ..........
    ..........
    ..........
    ..........
    ..........
    ..........
    ..........
    ..........
    ..........

0x31:
uni0031:
    ............
    ......@.....
    ......@@....
    .......@@@..
    .......@....
    .......@....
    ......@@....
    .....@@.....
    ..@@@@......
    ............
    ...@...@....
    ....@.@.....
    .....@......
    ............
    ............
    ............
    ............
    ............
    ............
    ............
    ............
    ............
    ............
    ............
    ............
    ............
    ............
    ............
    ............

0x32:
uni0032:
    ..........
    ..........
    ..........
    ..........
    ......@...
    ......@...
    .......@..
    ...@...@..
    ...@...@..
    ......@@..
    .....@@...
    ..@@@@....
    .......@..
    .......@..
    ..........
    ..........
    ..........
    ..........
    ..........
    ..........
    ..........
    ..........
    ..........
    ..........
    ..........
    ..........
    ..........
    ..........
    ..........

0x33:
uni0033:
    ............
    ............
    ............
    ......@.....
    ......@@....
    .......@@@..
    ...@...@....
    ...@...@....
    ......@@....
    .....@@.....
    ..@@@@......
    .......@....
    .......@....
    ............
    ............
    ............
    ............
    ............
    ............
    ............
    ............
    ............
    ............
    ............
    ............
    ............
    ............
    ............
    ............

0x34:
uni0034:
    ..........
    ..........
    ..........
    ..........
    ..........
    ..........
    .....@.@..
    .....@.@..
    ..........
    ..........
    ......@...
    ......@...
    .......@..
    .......@..
    .......@..
    ......@@..
    .....@@...
    ..@@@@....
    ..........
    ..........
    ..........
    ..........
    ..........
    ..........
    ..........
    ..........
    ..........
    ..........
    ..........

0x35:
uni0035:
    ............
    ............
    ............
    ............
    ............
    .....@.@....
    .....@.@....
    ............
    ............
    ......@.....
    ......@@....
    .......@@@..
    .......@....
    .......@....
    ......@@....
    .....@@.....
    ..@@@@......
    ............
    ............
    ............
    ............
    ............
    ............
    ............
    ............
    ............
    ............
    ............
    ............

0x36:
uni0036:
    ..........
    ..........
    ..........
    ..........
    ..........
    ..........
    .....@.@..
    .....@.@..
    ..........
    .....@.@..
    .....@.@..
    ..........
    ..........
    ......@...
    ......@...
    .......@..
    .......@..
    .......@..
    ......@@..
    .....@@...
    ..@@@@....
    ..........
    ..........
    ..........
    ..........
    ..........
    ..........
    ..........
    ..........

0x37:
uni0037:
    ............
    ............
    ............
    ............
    ............
    .....@.@....
    .....@.@....
    ............
    .....@.@....
    .....@.@....
    ............
    ............
    ......@.....
    ......@@....
    .......@@@..
    .......@....
    .......@....
    ......@@....
    .....@@.....
    ..@@@@......
    ............
    ............
    ............
    ............
    ............
    ............
    ............
    ............
    ............

0x38:
uni0038:
    ...................
    ...................
    ...................
    ...................
    ...................
    .............@.....
    .............@.....
    ................@..
    ................@..
    .............@..@..
    .........@...@..@..
    ...@......@@@.@@...
    ..@.......@........
    ..@.......@........
    ..@.......@...@....
    ...@....@@....@....
    ....@@@@...........
    ...................
    ...................
    ...................
    ...................
    ...................
    ...................
    ...................
    ...................
    ...................
    ...................
    ...................
    ...................

0x39:
uni0039:
    ....................
    ....................
    ....................
    ....................
    ....................
    .............@......
    .............@......
    ....................
    ................@...
    .........@...@..@...
    ...@......@@@.@@.@@.
    ..@.......@.........
    ..@.......@.........
    ..@.......@...@.....
    ...@....@@....@.....
    ....@@@@............
    ....................
    ....................
    ....................
    ....................
    ....................
    ....................
    ....................
    ....................
    ....................
    ....................
    ....................
    ....................
    ....................

0x3a:
uni003A:
    ...............
    ...............
    ...............
    ...............
    ...............
    ...............
    ........@......
    ........@......
    ...............
    ...........@...
    ........@..@...
    ....@...@..@...
    .@@@.@@@.@@....
    ...............
    ...............
    .........@.....
    .........@.....
    ...............
    ...............
    ...............
    ...............
    ...............
    ...............
    ...............
    ...............
    ...............
    ...............
    ...............
    ...............

0x3b:
uni003B:
    ................
    ................
    ................
    ................
    ................
    ................
    ........@.......
    ........@.......
    ................
    ................
    ........@.......
    ....@...@..@....
    .@@@.@@@.@@.@@..
    ................
    ................
    .........@......
    .........@......
    ................
    ................
    ................
    ................
    ................
    ................
    ................
    ................
    ................
    ................
    ................
    ................

0x3c:
uni003C:
    ...................
    ...................
    ...................
    ...................
    ................@..
    .............@..@..
    .........@...@..@..
    ...@......@@@.@@...
    ..@.......@........
    ..@.......@........
    ..@.......@..@.@...
    ...@....@@...@.@...
    ....@@@@......@....
    ..............@....
    ...................
    ...................
    ...................
    ...................
    ...................
    ...................
    ...................
    ...................
    ...................
    ...................
    ...................
    ...................
    ...................
    ...................
    ...................

0x3d:
uni003D:
    ....................
    ....................
    ....................
    ....................
    ................@...
    .........@...@..@...
    ...@......@@@.@@.@@.
    ..@.......@.........
    ..@.......@.........
    ..@.......@..@.@....
    ...@....@@...@.@....
    ....@@@@......@.....
    ..............@.....
    ....................
    ....................
    ....................
    ....................
    ....................
    ....................
    ....................
    ....................
    ....................
    ....................
    ....................
    ....................
    ....................
    ....................
    ....................
    ....................

0x3e:
uni003E:
    ...............
    ...............
    ...............
    ...............
    ...........@...
    ........@..@...
    ....@...@..@...
    .@@@.@@@.@@....
    ...............
    ...............
    .......@.@.....
    .......@.@.....
    ........@......
    ........@......
    ...............
    ...............
    ...............
    ...............
    ...............
    ...............
    ...............
    ...............
    ...............
    ...............
    ...............
    ...............
    ...............
    ...............
    ...............

0x3f:
uni003F:
    ................
    ................
    ................
    ................
    ........@.......
    ....@...@..@....
    .@@@.@@@.@@.@@..
    ................
    ................
    .......@.@......
    .......@.@......
    ........@.......
    ........@.......
    ................
    ................
    ................
    ................
    ................
    ................
    ................
    ................
    ................
    ................
    ................
    ................
    ................
    ................
    ................
    ................

0x40:
uni0040:
    ...................
    ...................
    ...................
    ...................
    .............@.....
    .............@.....
    ............@.@....
    ............@.@....
    ...................
    ................@..
    .............@..@..
    .........@...@..@..
    ...@......@@@.@@...
    ..@.......@........
    ..@.......@........
    ..@.......@..@.@...
    ...@....@@...@.@...
    ....@@@@......@....
    ..............@....
    ...................
    ...................
    ...................
    ...................
    ...................
    ...................
    ...................
    ...................
    ...................
    ...................

0x41:
uni0041:
    ....................
    ....................
    ....................
    ....................
    .............@......
    .............@......
    ............@.@.....
    ............@.@.....
    ....................
    ................@...
    .........@...@..@...
    ...@......@@@.@@.@@.
    ..@.......@.........
    ..@.......@.........
    ..@.......@..@.@....
    ...@....@@...@.@....
    ....@@@@......@.....
    ..............@.....
    ....................
    ....................
    ....................
    ....................
    ....................
    ....................
    ....................
    ....................
    ....................
    ....................
    ....................

0x42:
uni0042:
    ...............
    ...............
    ...............
    ...............
    ........@......
    ........@......
    .......@.@.....
    .......@.@.....
    ...............
    ...........@...
    ........@..@...
    ....@...@..@...
    .@@@.@@@.@@....
    ...............
    ...............
    .......@.@.....
    .......@.@.....
    ........@......
    ........@......
    ...............
    ...............
    ...............
    ...............
    ...............
    ...............
    ...............
    ...............
    ...............
    ...............

0x43:
uni0043:
    ................
    ................
    ................
    ................
    ........@.......
    ........@.......
    .......@.@......
    .......@.@......
    ................
    ................
    ........@.......
    ....@...@..@....
    .@@@.@@@.@@.@@..
    ................
    ................
    .......@.@......
    .......@.@......
    ........@.......
    ........@.......
    ................
    ................
    ................
    ................
    ................
    ................
    ................
    ................
    ................
    ................

0x44:
uni0044:
    .....................
    .....................
    .....................
    .....................
    .....................
    ...............@@@...
    ..............@...@..
    .............@....@..
    .........@..@..@@@...
    ...@......@@@@@......
    ..@.......@@.........
    ..@.......@..........
    ..@.......@...@.@....
    ...@....@@....@.@....
    ....@@@@.............
    .....................
    .....................
    .....................
    .....................
    .....................
    .....................
    .....................
    .....................
    .....................
    .....................
    .....................
    .....................
    .....................
    .....................

0x45:
uni0045:
    .....................
    .....................
    .....................
    .....................
    .....................
    ...............@@@...
    ..............@...@..
    .............@....@..
    .........@..@....@...
    ...@......@@@@@@@@@@.
    ..@.......@@.........
    ..@.......@..........
    ..@.......@...@.@....
    ...@....@@....@.@....
    ....@@@@.............
    .....................
    .....................
    .....................
    .....................
    .....................
    .....................
    .....................
    .....................
    .....................
    .....................
    .....................
    .....................
    .....................
    .....................

0x46:
uni0046:
    .................
    .................
    .................
    .................
    .................
    .................
    ..........@@@....
    .........@...@...
    ........@....@...
    ...@...@..@@@....
    .@@.@@@@@@.......
    ......@..........
    .................
    ........@.@......
    ........@.@......
    .................
    .................
    .................
    .................
    .................
    .................
    .................
    .................
    .................
    .................
    .................
    .................
    .................
    .................

0x47:
uni0047:
    ................
    ................
    ................
    ................
    ................
    ................
    .........@@@....
    ........@...@...
    .......@....@...
    ...@..@....@....
    .@@.@@@@@@@@@@..
    .....@..........
    ................
    .......@.@......
    .......@.@......
    ................
    ................
    ................
    ................
    ................
    ................
    ................
    ................
    ................
    ................
    ................
    ................
    ................
    ................

0x48:
uni0048:
    .....................
    .....................
    .....................
    .....................
    .....................
    .............@.......
    .............@.......
    ............@.@......
    ............@.@......
    .....................
    ...............@@@...
    ..............@...@..
    .............@....@..
    .........@..@..@@@...
    ...@......@@@@@......
    ..@.......@@.........
    ..@.......@..........
    ..@.......@..........
    ...@....@@...........
    ....@@@@.............
    .....................
    .....................
    .....................
    .....................
    .....................
    .....................
    .....................
    .....................
    .....................

0x49:
uni0049:
    .....................
    .....................
    .....................
    .....................
    .....................
    .............@.......
    .............@.......
    ............@.@......
    ............@.@......
    .....................
    ...............@@@...
    ..............@...@..
    .............@....@..
    .........@..@....@...
    ...@......@@@@@@@@@@.
    ..@.......@@.........
    ..@.......@..........
    ..@.......@..........
    ...@....@@...........
    ....@@@@.............
    .....................
    .....................
    .....................
    .....................
    .....................
    .....................
    .....................
    .....................
    .....................

0x4a:
uni004A:
    .................
    .................
    .................
    .................
    .................
    .................
    .................
    .................
    .................
    ........@........
    ........@........
    .......@.@.......
    .......@.@.......
    .................
    ..........@@@....
    .........@...@...
    ........@....@...
    ...@...@..@@@....
    .@@.@@@@@@.......
    ......@..........
    .................
    .................
    .................
    .................
    .................
    .................
    .................
    .................
    .................

0x4b:
uni004B:
    ................
    ................
    ................
    ................
    ................
    ................
    ................
    ................
    ................
    .......@........
    .......@........
    ......@.@.......
    ......@.@.......
    ................
    .........@@@....
    ........@...@...
    .......@....@...
    ...@..@....@....
    .@@.@@@@@@@@@@..
    .....@..........
    ................
    ................
    ................
    ................
    ................
    ................
    ................
    ................
    ................

0x4c:
uni004C:
    ............
    ............
    ............
    ............
    ............
    ............
    ............
    ............
    ............
    ............
    ....@...@...
    ....@@..@...
    ....@..@.@..
    ....@..@.@..
    ....@.......
    ....@..@@...
    ....@.@..@..
    ....@@...@..
    ....@..@@...
    ..@@@@@.....
    ............
    ............
    ............
    ............
    ............
    ............
    ............
    ............
    ............

0x4d:
uni004D:
    .............
    .............
    .............
    .............
    .............
    .............
    .............
    .............
    .............
    .............
    ....@...@....
    ....@@..@....
    ....@..@.@...
    ....@..@.@...
    ....@........
    ....@..@@....
    ....@.@..@...
    ....@@...@...
    ....@...@....
    ..@@@@@@@@@@.
    .............
    .............
    .............
    .............
    .............
    .............
    .............
    .............
    .............

0x4e:
uni004E:
    ............
    ............
    ............
    ............
    ............
    ............
    ............
    ............
    ............
    ............
    ...@...@....
    ...@@..@....
    ...@..@.@...
    ...@..@.@...
    ...@........
    ...@..@@....
    ...@.@..@...
    ...@@...@...
    ...@..@@....
    .@@@@@......
    ............
    ............
    ............
    ............
    ............
    ............
    ............
    ............
    ............

0x4f:
uni004F:
    .............
    .............
    .............
    .............
    .............
    .............
    .............
    .............
    .............
    .............
    ...@...@.....
    ...@@..@.....
    ...@..@.@....
    ...@..@.@....
    ...@.........
    ...@..@@.....
    ...@.@..@....
    ...@@...@....
    ...@...@.....
    .@@@@@@@@@@..
    .............
    .............
    .............
    .............
    .............
    .............
    .............
    .............
    .............

0x50:
uni0050:
    .............
    .............
    .............
    .....@.......
    .....@.......
    ....@.@......
    ....@.@......
    .............
    .............
    ....@@@......
    ...@.........
    ..@..........
    ...@..@@.....
    ....@@.......
    ...@.........
    ...@.........
    ..@..........
    ..@..........
    ..@..........
    ...@.....@@..
    ....@@@@@....
    .............
    .............
    .............
    .............
    .............
    .............
    .............
    .............

0x51:
uni0051:
    ............
    ............
    ............
    ............
    .....@......
    .....@......
    ....@.@.....
    ....@.@.....
    ............
    ............
    ....@@@.....
    ...@@.@@....
    .....@......
    ....@@@.....
    ...@...@@@@.
    ...@........
    ..@.........
    ..@.........
    ..@.........
    ...@.....@@.
    ....@@@@@...
    ............
    ............
    ............
    ............
    ............
    ............
    ............
    ............

0x52:
uni0052:
    ..........
    ..........
    ..........
    ..........
    ..........
    ..........
    ..........
    ..........
    ..........
    ..........
    .....@....
    .....@....
    ....@.@...
    ....@.@...
    ..........
    ..........
    ....@@@...
    ...@......
    ..@.......
    ...@..@@..
    .@@@@@....
    ..........
    ..........
    ..........
    ..........
    ..........
    ..........
    ..........
    ..........

0x53:
uni0053:
    ...........
    ...........
    ...........
    ...........
    ...........
    ...........
    ...........
    ...........
    ...........
    ...........
    .....@.....
    .....@.....
    ....@.@....
    ....@.@....
    ...........
    ...........
    ....@@@....
    ...@@.@@...
    .....@.....
    ....@@@....
    .@@@...@@..
    ...........
    ...........
    ...........
    ...........
    ...........
    ...........
    ...........
    ...........

0x54:
uni0054:
    ..................
    ..................
    ..................
    ..................
    ..................
    ..................
    ..................
    ..................
    ..................
    ..................
    .............@@...
    ............@.@@..
    ............@..@..
    ..@.........@.@@..
    ..@..........@.@..
    ..@............@..
    ...@........@@@...
    ....@@@@@@@@......
    ..................
    ..................
    ..................
    ..................
    ..................
    ..................
    ..................
    ..................
    ..................
    ..................
    ..................

0x55:
uni0055:
    ...................
    ...................
    ...................
    ...................
    ...................
    ...................
    ...................
    ...................
    ...................
    .............@@....
    ............@.@@...
    ............@..@...
    ..@.........@.@@...
    ..@..........@.@...
    ..@............@...
    ...@........@@@.@@.
    ....@@@@@@@@.......
    ...................
    ...................
    ...................
    ...................
    ...................
    ...................
    ...................
    ...................
    ...................
    ...................
    ...................
    ...................

0x56:
uni0056:
    .........
    .........
    .........
    .........
    .........
    .........
    .........
    .........
    .........
    .........
    ...@@....
    ..@.@@...
    ..@..@...
    ..@.@@...
    ...@.@...
    .....@...
    .@@@@....
    .........
    .........
    .........
    .........
    .........
    .........
    .........
    .........
    .........
    .........
    .........
    .........

0x57:
uni0057:
    ...........
    ...........
    ...........
    ...........
    ...........
    ...........
    ...........
    ...........
    ...........
    ...........
    ....@@.....
    ...@..@....
    ...@..@....
    ...@.@.....
    ....@......
    .@@@.@@@@..
    ...........
    ...........
    ...........
    ...........
    ...........
    ...........
    ...........
    ...........
    ...........
    ...........
    ...........
    ...........
    ...........

0x58:
uni0058:
    ..................
    ..................
    ..................
    ..................
    ..................
    ..................
    .............@@...
    ............@.@@..
    ............@..@..
    ..@.........@.@@..
    ..@..........@.@..
    ..@............@..
    ...@........@@@...
    ....@@@@@@@@......
    ..................
    ..................
    .........@........
    .........@........
    ..................
    ..................
    ..................
    ..................
    ..................
    ..................
    ..................
    ..................
    ..................
    ..................
    ..................

0x59:
uni0059:
    ...................
    ...................
    ...................
    ...................
    ...................
    .............@@....
    ............@.@@...
    ............@..@...
    ..@.........@.@@...
    ..@..........@.@...
    ..@............@...
    ...@........@@@.@@.
    ....@@@@@@@@.......
    ...................
    ...................
    .........@.........
    .........@.........
    ...................
    ...................
    ...................
    ...................
    ...................
    ...................
    ...................
    ...................
    ...................
    ...................
    ...................
    ...................

0x5a:
uni005A:
    .........
    .........
    .........
    .........
    .........
    .........
    ...@@....
    ..@.@@...
    ..@..@...
    ..@.@@...
    ...@.@...
    .....@...
    .@@@@....
    .........
    .........
    .@.......
    .@.......
    .........
    .........
    .........
    .........
    .........
    .........
    .........
    .........
    .........
    .........
    .........
    .........

0x5b:
uni005B:
    ...........
    ...........
    ...........
    ...........
    ...........
    ...........
    ....@@.....
    ...@..@....
    ...@..@....
    ...@.@.....
    ....@......
    .@@@.@@@@..
    ...........
    ...........
    ..@........
    ..@........
    ...........
    ...........
    ...........
    ...........
    ...........
    ...........
    ...........
    ...........
    ...........
    ...........
    ...........
    ...........
    ...........

0x5c:
uni005C:
    ..................
    ..................
    ..................
    ..................
    ..................
    ..................
    .............@....
    .............@....
    ..................
    ..................
    .............@@...
    ............@.@@..
    ............@..@..
    ..@.........@.@@..
    ..@..........@.@..
    ..@............@..
    ...@........@@@...
    ....@@@@@@@@......
    ..................
    ..................
    .........@........
    .........@........
    ..................
    ..................
    ..................
    ..................
    ..................
    ..................
    ..................

0x5d:
uni005D:
    ...................
    ...................
    ...................
    ...................
    ...................
    .............@.....
    .............@.....
    ...................
    ...................
    .............@@....
    ............@.@@...
    ............@..@...
    ..@.........@.@@...
    ..@..........@.@...
    ..@............@...
    ...@........@@@.@@.
    ....@@@@@@@@.......
    ...................
    ...................
    .........@.........
    .........@.........
    ...................
    ...................
    ...................
    ...................
    ...................
    ...................
    ...................
    ...................

0x5e:
uni005E:
    .........
    .........
    .........
    .........
    .........
    .........
    ...@.....
    ...@.....
    .........
    .........
    ...@@....
    ..@.@@...
    ..@..@...
    ..@.@@...
    ...@.@...
    .....@...
    .@@@@....
    .........
    .........
    .@.......
    .@.......
    .........
    .........
    .........
    .........
    .........
    .........
    .........
    .........

0x5f:
uni005F:
    ...........
    ...........
    ...........
    ...........
    ...........
    ...........
    .....@.....
    .....@.....
    ...........
    ...........
    ....@@.....
    ...@..@....
    ...@..@....
    ...@.@.....
    ....@......
    .@@@.@@@@..
    ...........
    ...........
    ..@........
    ..@........
    ...........
    ...........
    ...........
    ...........
    ...........
    ...........
    ...........
    ...........
    ...........

0x60:
uni0060:
    ..................
    ..................
    ..................
    ..................
    ..................
    .............@@...
    ............@.@@..
    ............@..@..
    ..@.........@.@@..
    ..@..........@.@..
    ..@............@..
    ...@........@@@...
    ....@@@@@@@@......
    ..................
    ............@.@...
    ............@.@...
    .............@....
    .............@....
    ..................
    ..................
    ..................
    ..................
    ..................
    ..................
    ..................
    ..................
    ..................
    ..................
    ..................

0x61:
uni0061:
    ...................
    ...................
    ...................
    ...................
    .............@@....
    ............@.@@...
    ............@..@...
    ..@.........@.@@...
    ..@..........@.@...
    ..@............@...
    ...@........@@@.@@.
    ....@@@@@@@@.......
    ...................
    ............@.@....
    ............@.@....
    .............@.....
    .............@.....
    ...................
    ...................
    ...................
    ...................
    ...................
    ...................
    ...................
    ...................
    ...................
    ...................
    ...................
    ...................

0x62:
uni0062:
    .........
    .........
    .........
    .........
    ...@@....
    ..@.@@...
    ..@..@...
    ..@.@@...
    ...@.@...
    .....@...
    .@@@@....
    .........
    .........
    ..@.@....
    ..@.@....
    ...@.....
    ...@.....
    .........
    .........
    .........
    .........
    .........
    .........
    .........
    .........
    .........
    .........
    .........
    .........

0x63:
uni0063:
    ...........
    ...........
    ...........
    ...........
    ....@@.....
    ...@..@....
    ...@..@....
    ...@.@.....
    ....@......
    .@@@.@@@@..
    ...........
    ...........
    ...@.@.....
    ...@.@.....
    ....@......
    ....@......
    ...........
    ...........
    ...........
    ...........
    ...........
    ...........
    ...........
    ...........
    ...........
    ...........
    ...........
    ...........
    ...........

0x64:
uni0064:
    .............
    .............
    .............
    .............
    .............
    .............
    .............
    ........@....
    ........@....
    .............
    .............
    ........@@...
    .......@.@@..
    .......@..@..
    .......@..@..
    ...@....@@@..
    ..@.......@..
    ..@.......@..
    ..@......@...
    ...@....@....
    ....@@@@.....
    .............
    .............
    .............
    .............
    .............
    .............
    .............
    .............

0x65:
uni0065:
    ...............
    ...............
    ...............
    ...............
    ...............
    ........@......
    ........@......
    ...............
    ...............
    ........@@.....
    .......@.@@....
    .......@..@....
    .......@..@....
    ...@....@@@@@..
    ..@.......@....
    ..@.......@....
    ..@......@.....
    ...@....@......
    ....@@@@.......
    ...............
    ...............
    ...............
    ...............
    ...............
    ...............
    ...............
    ...............
    ...............
    ...............

0x66:
uni0066:
    .......
    .......
    .......
    .......
    .......
    .......
    .......
    .......
    .......
    .......
    ...@...
    ...@...
    .......
    .......
    ...@@..
    ..@.@@.
    ..@..@.
    ..@.@@.
    ...@.@.
    .....@.
    .@@@@..
    .......
    .......
    .......
    .......
    .......
    .......
    .......
    .......

0x67:
uni0067:
    ...........
    ...........
    ...........
    ...........
    ...........
    ...........
    ...........
    ...........
    ...........
    ...........
    ....@......
    ....@......
    ...........
    ...........
    ....@@.....
    ...@..@....
    ...@..@....
    ...@.@.....
    ....@......
    .@@@.@@@@..
    ...........
    ...........
    ...........
    ...........
    ...........
    ...........
    ...........
    ...........
    ...........

0x68:
uni0068:
    .............
    .............
    .............
    .............
    .............
    .............
    .............
    ........@....
    ........@....
    .......@.@...
    .......@.@...
    .............
    .............
    ........@@...
    .......@.@@..
    .......@..@..
    .......@..@..
    ...@....@@@..
    ..@.......@..
    ..@.......@..
    ..@......@...
    ...@....@....
    ....@@@@.....
    .............
    .............
    .............
    .............
    .............
    .............

0x69:
uni0069:
    ...............
    ...............
    ...............
    ...............
    ...............
    ........@......
    ........@......
    .......@.@.....
    .......@.@.....
    ...............
    ...............
    ........@@.....
    .......@.@@....
    .......@..@....
    .......@..@....
    ...@....@@@@@..
    ..@.......@....
    ..@.......@....
    ..@......@.....
    ...@....@......
    ....@@@@.......
    ...............
    ...............
    ...............
    ...............
    ...............
    ...............
    ...............
    ...............

0x6a:
uni006A:
    .......
    .......
    .......
    .......
    .......
    .......
    .......
    .......
    .......
    .......
    ...@...
    ...@...
    ..@.@..
    ..@.@..
    .......
    .......
    ...@@..
    ..@.@@.
    ..@..@.
    ..@.@@.
    ...@.@.
    .....@.
    .@@@@..
    .......
    .......
    .......
    .......
    .......
    .......

0x6b:
uni006B:
    ...........
    ...........
    ...........
    ...........
    ...........
    ...........
    ...........
    ...........
    ...........
    ...........
    ....@......
    ....@......
    ...@.@.....
    ...@.@.....
    ...........
    ...........
    ....@@.....
    ...@..@....
    ...@..@....
    ...@.@.....
    ....@......
    .@@@.@@@@..
    ...........
    ...........
    ...........
    ...........
    ...........
    ...........
    ...........

0x6c:
uni006C:
    ...................
    ...................
    ...................
    ...................
    ...................
    ...................
    ...................
    ...................
    ...................
    ...................
    ......@@...........
    ....@@.............
    ...@...............
    ...@...............
    ....@@@@@@@@@@.....
    ..............@....
    .@............@....
    ..@@@@@@@@@@@@.....
    ...................
    ...................
    ...................
    ...................
    ...................
    ...................
    ...................
    ...................
    ...................
    ...................
    ...................

0x6d:
uni006D:
    ....................
    ....................
    ....................
    ....................
    ....................
    ....................
    ....................
    ....................
    ....................
    ....................
    .........@@.........
    .......@@...........
    .....@@.............
    ....@...............
    ....@...............
    .....@@@@@@@@@@.....
    ...............@....
    ..@............@....
    ...@@@@@@@@@@@@.@@..
    ....................
    ....................
    ....................
    ....................
    ....................
    ....................
    ....................
    ....................
    ....................
    ....................

0x6e:
uni006E:
    ..................
    ..................
    ..................
    ..................
    ..................
    ..................
    ..................
    ..................
    ..................
    ..................
    ......@@..........
    ....@@............
    ...@..............
    ...@..............
    ....@@@@@@@@@@....
    ..............@...
    ..............@...
    .@@@@@@@@@@@@@....
    ..................
    ..................
    ..................
    ..................
    ..................
    ..................
    ..................
    ..................
    ..................
    ..................
    ..................

0x6f:
uni006F:
    ...................
    ...................
    ...................
    ...................
    ...................
    ...................
    ...................
    ...................
    ...................
    ...................
    ......@@...........
    ....@@.............
    ...@...............
    ...@...............
    ....@@@@@@@@@@.....
    ..............@....
    ..............@....
    .@@@@@@@@@@@@@.@@..
    ...................
    ...................
    ...................
    ...................
    ...................
    ...................
    ...................
    ...................
    ...................
    ...................
    ...................

0x70:
uni0070:
    ...................
    ...................
    ...................
    ...................
    ...................
    ...................
    ...................
    ...................
    ...................
    ...............@@..
    .............@@....
    ...........@@.@....
    .........@@.@.@....
    ........@....@.....
    ........@..........
    .........@.........
    ..........@@.......
    ............@......
    ...@.........@.....
    ..@...........@....
    ..@...........@....
    ..@@........@@.....
    ...@@@@@@@@@.......
    ...................
    ...................
    ...................
    ...................
    ...................
    ...................

0x71:
uni0071:
    ....................
    ....................
    ....................
    ....................
    ....................
    ....................
    ....................
    ....................
    ....................
    ...............@@...
    .............@@.....
    ...........@@.@.....
    .........@@.@.@.....
    ........@....@......
    ........@...........
    .........@..........
    ..........@@........
    ............@.......
    ...@.........@......
    ..@...........@.....
    ..@...........@.....
    ..@@........@@.@@@..
    ...@@@@@@@@@........
    ....................
    ....................
    ....................
    ....................
    ....................
    ....................

0x72:
uni0072:
    ..............
    ..............
    ..............
    ..............
    ..............
    ..............
    ..............
    ..............
    ..............
    ..............
    .........@@...
    .......@@.....
    .....@@.@.....
    ...@@.@.@.....
    ..@....@......
    ..@...........
    ...@..........
    ....@@........
    ......@.......
    ......@.......
    .@@@@@........
    ..............
    ..............
    ..............
    ..............
    ..............
    ..............
    ..............
    ..............

0x73:
uni0073:
    ..............
    ..............
    ..............
    ..............
    ..............
    ..............
    ..............
    ..............
    ..............
    ..............
    .........@@...
    .......@@.....
    .....@@.@.....
    ...@@.@.@.....
    ..@....@......
    ..@...........
    ...@..........
    ....@@........
    ......@.......
    ......@@@.....
    .@@@@@...@@@..
    ..............
    ..............
    ..............
    ..............
    ..............
    ..............
    ..............
    ..............

0x74:
uni0074:
    ..............
    ..............
    ..............
    ..............
    ..............
    ..............
    ..............
    ..............
    ..............
    ..............
    ......@.......
    ......@.......
    ..............
    .........@....
    .........@@...
    .........@....
    ......@..@....
    .....@@..@....
    ......@..@....
    .....@@..@....
    .........@....
    .........@....
    ..@@@@@@@.....
    ..............
    ..............
    ..............
    ..............
    ..............
    ..............

0x75:
uni0075:
    ..................
    ..................
    ..................
    ..................
    ..................
    ..................
    ..................
    ..................
    ..................
    ........@.........
    ........@.........
    ..................
    .............@....
    .............@@...
    .............@....
    ........@....@....
    .......@@....@....
    ........@....@....
    ...@...@@....@....
    ..@..........@....
    ..@..........@....
    ..@@.......@@.@@..
    ...@@@@@@@@.......
    ..................
    ..................
    ..................
    ..................
    ..................
    ..................

0x76:
uni0076:
    ..............
    ..............
    ..............
    ..............
    ..............
    ..............
    ..............
    ..............
    ..............
    ..............
    ....@.........
    ....@.........
    .........@@...
    .......@@.....
    .....@@.......
    ...@@.........
    ..@...........
    ..@...........
    ...@..........
    ....@@........
    ......@.......
    ......@.......
    .@@@@@........
    ..............
    ..............
    ..............
    ..............
    ..............
    ..............

0x77:
uni0077:
    ..............
    ..............
    ..............
    ..............
    ..............
    ..............
    ..............
    ..............
    ..............
    ..............
    ....@.........
    ....@.........
    .........@@...
    .......@@.....
    .....@@.......
    ...@@.........
    ..@...........
    ..@...........
    ...@..........
    ....@@........
    ......@.......
    ......@@@.....
    .@@@@@...@@@..
    ..............
    ..............
    ..............
    ..............
    ..............
    ..............

0x78:
uni0078:
    ..............
    ..............
    ..............
    ..............
    .........@....
    .........@@...
    .........@....
    ......@..@....
    .....@@..@....
    ......@..@....
    .....@@..@....
    .........@....
    .........@....
    ..@@@@@@@.....
    ..............
    ..............
    ....@.@.......
    ....@.@.......
    .....@........
    .....@........
    ..............
    ..............
    ..............
    ..............
    ..............
    ..............
    ..............
    ..............
    ..............

0x79:
uni0079:
    ..................
    ..................
    ..................
    ........@.........
    ........@.........
    ..................
    .............@....
    .............@@...
    .............@....
    ........@....@....
    .......@@....@....
    ........@....@....
    ...@...@@....@....
    ..@..........@....
    ..@..........@....
    ..@@.......@@.@@..
    ...@@@@@@@@.......
    ..................
    ..................
    ......@.@.........
    ......@.@.........
    .......@..........
    .......@..........
    ..................
    ..................
    ..................
    ..................
    ..................
    ..................

0x7a:
uni007A:
    ..............
    ..............
    ..............
    ..............
    ....@.........
    ....@.........
    .........@@...
    .......@@.....
    .....@@.......
    ...@@.........
    ..@...........
    ..@...........
    ...@..........
    ....@@........
    ......@.......
    ......@.......
    .@@@@@........
    ..............
    ..............
    ..@.@.........
    ..@.@.........
    ...@..........
    ...@..........
    ..............
    ..............
    ..............
    ..............
    ..............
    ..............

0x7b:
uni007B:
    ..............
    ..............
    ..............
    ..............
    ....@.........
    ....@.........
    .........@@...
    .......@@.....
    .....@@.......
    ...@@.........
    ..@...........
    ..@...........
    ...@..........
    ....@@........
    ......@.......
    ......@@@.....
    .@@@@@...@@@..
    ..............
    ..............
    ..@.@.........
    ..@.@.........
    ...@..........
    ...@..........
    ..............
    ..............
    ..............
    ..............
    ..............
    ..............

0x7c:
uni007C:
    ...................
    ...................
    ...................
    ...................
    ...................
    ...................
    ...................
    ...................
    ...................
    ...............@...
    .............@@....
    ...........@@......
    .........@@....@@..
    ........@....@@....
    ...........@@.@....
    .........@@.@.@....
    ........@....@.....
    ........@..........
    .........@.........
    ..........@@.......
    ............@......
    ...@.........@.....
    ..@...........@....
    ..@...........@....
    ..@@........@@.....
    ...@@@@@@@@@.......
    ...................
    ...................
    ...................

0x7d:
uni007D:
    ....................
    ....................
    ....................
    ....................
    ....................
    ....................
    ....................
    ....................
    ....................
    ...............@....
    .............@@.....
    ...........@@.......
    .........@@....@@...
    ........@....@@.....
    ...........@@.@.....
    .........@@.@.@.....
    ........@....@......
    ........@...........
    .........@..........
    ..........@@........
    ............@.......
    ...@.........@......
    ..@...........@.....
    ..@...........@.....
    ..@@........@@.@@@..
    ...@@@@@@@@@........
    ....................
    ....................
    ....................

0x7e:
uni007E:
    ..............
    ..............
    ..............
    ..............
    ..............
    ..............
    ..............
    ..............
    ..............
    ..............
    .........@....
    .......@@.....
    .....@@.......
    ...@@....@@...
    ..@....@@.....
    .....@@.@.....
    ...@@.@.@.....
    ..@....@......
    ..@...........
    ...@..........
    ....@@........
    ......@.......
    ......@.......
    .@@@@@........
    ..............
    ..............
    ..............
    ..............
    ..............

0x7f:
uni007F:
    ..............
    ..............
    ..............
    ..............
    ..............
    ..............
    ..............
    ..............
    ..............
    ..............
    .........@....
    .......@@.....
    .....@@.......
    ...@@....@@...
    ..@....@@.....
    .....@@.@.....
    ...@@.@.@.....
    ..@....@......
    ..@...........
    ...@..........
    ....@@........
    ......@.......
    ......@@@.....
    .@@@@@...@@@..
    ..............
    ..............
    ..............
    ..............
    ..............

0x80:
uni0080:
    ...................
    ...................
    ...................
    ...................
    ...................
    ...............@...
    .............@@....
    ...........@@......
    .........@@....@@..
    ........@....@@....
    ...........@@......
    .........@@........
    ........@..........
    ........@..........
    .........@.........
    ..........@@.......
    ............@......
    ...@.........@.....
    ..@...........@....
    ..@...........@....
    ..@@........@@.....
    ...@@@@@@@@@.......
    ...................
    ...................
    .......@.@.........
    .......@.@.........
    ...................
    ...................
    ...................

0x81:
uni0081:
    ....................
    ....................
    ....................
    ....................
    ....................
    ...............@....
    .............@@.....
    ...........@@.......
    .........@@....@@...
    ........@....@@.....
    ...........@@.......
    .........@@.........
    ........@...........
    ........@...........
    .........@..........
    ..........@@........
    ............@.......
    ...@.........@......
    ..@...........@.....
    ..@...........@.....
    ..@@........@@.@@@..
    ...@@@@@@@@@........
    ....................
    ....................
    .......@.@..........
    .......@.@..........
    ....................
    ....................
    ....................

0x82:
uni0082:
    ..............
    ..............
    ..............
    ..............
    ..............
    ..............
    .........@....
    .......@@.....
    .....@@.......
    ...@@....@@...
    ..@....@@.....
    .....@@.......
    ...@@.........
    ..@...........
    ..@...........
    ...@..........
    ....@@........
    ......@.......
    ......@.......
    .@@@@@........
    ..............
    ..............
    ..@.@.........
    ..@.@.........
    ..............
    ..............
    ..............
    ..............
    ..............

0x83:
uni0083:
    ..............
    ..............
    ..............
    ..............
    ..............
    ..............
    .........@....
    .......@@.....
    .....@@.......
    ...@@....@@...
    ..@....@@.....
    .....@@.......
    ...@@.........
    ..@...........
    ..@...........
    ...@..........
    ....@@........
    ......@.......
    ......@@@.....
    .@@@@@...@@@..
    ..............
    ..............
    ..@.@.........
    ..@.@.........
    ..............
    ..............
    ..............
    ..............
    ..............

0x84:
uni0084:
    ...................
    ...................
    ...................
    ...................
    ...................
    ...................
    ...................
    ...................
    ...................
    .........@.........
    .........@.........
    ...........@.......
    .........@.@...@...
    .........@...@@....
    ...........@@......
    .........@@....@@..
    ........@....@@....
    ...........@@......
    .........@@........
    ........@..........
    ........@..........
    .........@.........
    ..........@@.......
    ............@......
    ...@.........@.....
    ..@...........@....
    ..@...........@....
    ..@@........@@.....
    ...@@@@@@@@@.......

0x85:
uni0085:
    ....................
    ....................
    ....................
    ....................
    ....................
    ....................
    ....................
    ....................
    ....................
    .........@..........
    .........@..........
    ...........@........
    .........@.@...@....
    .........@...@@.....
    ...........@@.......
    .........@@....@@...
    ........@....@@.....
    ...........@@.......
    .........@@.........
    ........@...........
    ........@...........
    .........@..........
    ..........@@........
    ............@.......
    ...@.........@......
    ..@...........@.....
    ..@...........@.....
    ..@@........@@.@@@..
    ...@@@@@@@@@........

0x86:
uni0086:
    ..............
    ..............
    ..............
    ..............
    ..............
    ..............
    ..............
    ..............
    ..............
    ..............
    ...@..........
    ...@..........
    .....@........
    ...@.@...@....
    ...@...@@.....
    .....@@.......
    ...@@....@@...
    ..@....@@.....
    .....@@.......
    ...@@.........
    ..@...........
    ..@...........
    ...@..........
    ....@@........
    ......@.......
    ......@.......
    .@@@@@........
    ..............
    ..............

0x87:
uni0087:
    ..............
    ..............
    ..............
    ..............
    ..............
    ..............
    ..............
    ..............
    ..............
    ..............
    ...@..........
    ...@..........
    .....@........
    ...@.@...@....
    ...@...@@.....
    .....@@.......
    ...@@....@@...
    ..@....@@.....
    .....@@.......
    ...@@.........
    ..@...........
    ..@...........
    ...@..........
    ....@@........
    ......@.......
    ......@@@.....
    .@@@@@...@@@..
    ..............
    ..............

0x88:
uni0088:
    .............
    .............
    .............
    .............
    .............
    .............
    .............
    .............
    ......@...@..
    .......@.@...
    ........@....
    .............
    .............
    ........@....
    ........@@...
    ........@....
    ........@....
    ........@....
    ........@....
    ........@....
    ...@....@....
    ..@.....@....
    ..@.....@....
    ..@....@.....
    ...@@@@......
    .............
    .............
    .............
    .............

0x89:
uni0089:
    ............
    ............
    ............
    ............
    ............
    ............
    ......@...@.
    .......@.@..
    ........@...
    ............
    ............
    ........@...
    ........@...
    ........@...
    ........@...
    ........@...
    ........@...
    ........@...
    ........@...
    ........@@..
    ...@....@.@.
    ..@.....@...
    ..@.....@...
    ..@....@....
    ...@@@@.....
    ............
    ............
    ............
    ............

0x8a:
uni008A:
    ........
    ........
    ........
    ........
    ........
    ........
    ........
    ........
    ........
    ........
    .@...@..
    ..@.@...
    ...@....
    ........
    ........
    ...@....
    ...@@...
    ...@....
    ...@....
    ...@....
    ...@....
    ...@....
    ...@....
    ...@....
    .@@.....
    ........
    ........
    ........
    ........

0x8b:
uni008B:
    ........
    ........
    ........
    ........
    ........
    ........
    ........
    ........
    ........
    ........
    .@...@..
    ..@.@...
    ...@....
    ........
    ........
    ...@....
    ...@....
    ...@....
    ...@....
    ...@....
    ...@....
    ...@....
    ...@....
    ...@....
    .@@.@...
    ........
    ........
    ........
    ........

0x8c:
uni008C:
    ............
    ............
    ............
    ............
    ............
    ............
    ............
    ............
    ........@...
    ........@...
    ............
    ............
    ........@...
    ........@@..
    ........@...
    ........@...
    ........@...
    ........@...
    ........@...
    ...@....@...
    ..@.....@...
    ..@.....@...
    ..@....@....
    ...@@@@.....
    ............
    ............
    ............
    ............
    ............

0x8d:
uni008D:
    ............
    ............
    ............
    ............
    ............
    ............
    ........@...
    ........@...
    ............
    ............
    ........@...
    ........@...
    ........@...
    ........@...
    ........@...
    ........@...
    ........@...
    ........@...
    ........@@..
    ...@....@.@.
    ..@.....@...
    ..@.....@...
    ..@....@....
    ...@@@@.....
    ............
    ............
    ............
    ............
    ............

0x8e:
uni008E:
    ........
    ........
    ........
    ........
    ........
    ........
    ........
    ........
    ........
    ........
    ...@....
    ...@....
    ........
    ........
    ...@....
    ...@@...
    ...@....
    ...@....
    ...@....
    ...@....
    ...@....
    ...@....
    ...@....
    .@@.....
    ........
    ........
    ........
    ........
    ........

0x8f:
uni008F:
    .......
    .......
    .......
    .......
    .......
    .......
    .......
    .......
    .......
    .......
    ...@...
    ...@...
    .......
    .......
    ...@...
    ...@...
    ...@...
    ...@...
    ...@...
    ...@...
    ...@...
    ...@...
    ...@...
    .@@.@..
    .......
    .......
    .......
    .......
    .......

0x90:
uni0090:
    ............
    ............
    ............
    ............
    ............
    ............
    ............
    ............
    ........@...
    ........@...
    .......@.@..
    .......@.@..
    ............
    ............
    ........@...
    ........@@..
    ........@...
    ........@...
    ........@...
    ........@...
    ........@...
    ...@....@...
    ..@.....@...
    ..@.....@...
    ..@....@....
    ...@@@@.....
    ............
    ............
    ............

0x91:
uni0091:
    ............
    ............
    ............
    ............
    ............
    ............
    ........@...
    ........@...
    .......@.@..
    .......@.@..
    ............
    ............
    ........@...
    ........@...
    ........@...
    ........@...
    ........@...
    ........@...
    ........@...
    ........@...
    ........@@..
    ...@....@.@.
    ..@.....@...
    ..@.....@...
    ..@....@....
    ...@@@@.....
    ............
    ............
    ............

0x92:
uni0092:
    ........
    ........
    ........
    ........
    ........
    ........
    ........
    ........
    ........
    ........
    ...@....
    ...@....
    ..@.@...
    ..@.@...
    ........
    ........
    ...@....
    ...@@...
    ...@....
    ...@....
    ...@....
    ...@....
    ...@....
    ...@....
    ...@....
    .@@.....
    ........
    ........
    ........

0x93:
uni0093:
    .......
    .......
    .......
    .......
    .......
    .......
    .......
    .......
    .......
    .......
    ...@...
    ...@...
    ..@.@..
    ..@.@..
    .......
    .......
    ...@...
    ...@...
    ...@...
    ...@...
    ...@...
    ...@...
    ...@...
    ...@...
    ...@...
    .@@.@..
    .......
    .......
    .......

0x94:
uni0094:
    .............
    .............
    .............
    .............
    .............
    .............
    .............
    .....@.......
    .....@.......
    .............
    ........@....
    ........@....
    ...@.....@...
    ..@......@...
    ..@......@...
    ..@.....@@...
    ...@@@@@@.@..
    ........@@@..
    .............
    .............
    .............
    .............
    .............
    .............
    .............
    .............
    .............
    .............
    .............

0x95:
uni0095:
    ............
    ............
    ............
    ............
    ............
    .....@......
    .....@......
    ............
    ........@...
    ........@...
    ...@.....@@.
    ..@......@..
    ..@......@..
    ..@.....@@..
    ...@@@@@@.@.
    ........@@@.
    ............
    ............
    ............
    ............
    ............
    ............
    ............
    ............
    ............
    ............
    ............
    ............
    ............

0x96:
uni0096:
    .........
    .........
    .........
    .........
    .........
    .........
    .........
    ...@.....
    ...@.....
    .........
    .........
    ....@....
    .....@...
    .....@...
    .....@...
    .@@@@....
    ..@@.....
    .@..@....
    ..@@.....
    .........
    .........
    .........
    .........
    .........
    .........
    .........
    .........
    .........
    .........

0x97:
uni0097:
    .........
    .........
    .........
    .........
    .........
    .........
    .........
    ....@....
    ....@....
    .........
    .........
    ....@....
    ....@....
    ....@....
    .@@@.@@..
    ..@@.....
    .@..@....
    ..@@.....
    .........
    .........
    .........
    .........
    .........
    .........
    .........
    .........
    .........
    .........
    .........

0x98:
uni0098:
    .............
    .............
    .............
    .............
    .............
    .............
    .............
    .............
    ......@......
    ......@......
    .....@.@.....
    .....@.@.....
    .............
    ........@....
    ........@....
    ...@.....@...
    ..@......@...
    ..@......@...
    ..@.....@....
    ...@@@@@.....
    .............
    .............
    .............
    .............
    .............
    .............
    .............
    .............
    .............

0x99:
uni0099:
    ............
    ............
    ............
    ............
    ............
    ............
    ......@.....
    ......@.....
    .....@.@....
    .....@.@....
    ............
    ........@...
    ........@...
    ...@.....@@.
    ..@......@..
    ..@......@..
    ..@.....@...
    ...@@@@@....
    ............
    ............
    ............
    ............
    ............
    ............
    ............
    ............
    ............
    ............
    ............

0x9a:
uni009A:
    .........
    .........
    .........
    .........
    ....@....
    .....@...
    .....@...
    .....@...
    .@@@@....
    .........
    .........
    ...@.@...
    ...@.@...
    ....@....
    ....@....
    .........
    .........
    .........
    .........
    .........
    .........
    .........
    .........
    .........
    .........
    .........
    .........
    .........
    .........

0x9b:
uni009B:
    .........
    .........
    .........
    .........
    ....@....
    ....@....
    ....@....
    .@@@.@@..
    .........
    .........
    ...@.@...
    ...@.@...
    ....@....
    ....@....
    .........
    .........
    .........
    .........
    .........
    .........
    .........
    .........
    .........
    .........
    .........
    .........
    .........
    .........
    .........

0x9c:
uni009C:
    ..........
    ..........
    ..........
    ..........
    ..........
    ..........
    ..........
    ..........
    ..........
    ..........
    ....@@....
    ...@......
    ....@@....
    ...@......
    ..........
    ....@.....
    ....@@....
    ...@.@....
    ..@..@....
    ..@..@....
    ...@@.....
    ..........
    ..........
    ..........
    ..........
    ..........
    ..........
    ..........
    ..........

0x9d:
uni009D:
    ..........
    ..........
    ..........
    ..........
    ..........
    ..........
    ..........
    ..........
    ..........
    ..........
    .....@@...
    ....@.....
    .....@@...
    ....@.....
    ..........
    .....@....
    ....@@....
    ...@.@....
    ..@..@....
    ..@..@....
    ...@@@....
    ......@@..
    ..........
    ..........
    ..........
    ..........
    ..........
    ..........
    ..........

0x9e:
uni009E:
    ........
    ........
    ........
    ........
    ........
    ........
    ........
    ........
    ........
    ........
    ....@@..
    ...@....
    ....@@..
    ...@....
    ........
    ....@...
    ....@@..
    ...@.@..
    ..@..@..
    ..@..@..
    ...@@...
    ........
    ........
    ........
    ........
    ........
    ........
    ........
    ........

0x9f:
uni009F:
    ..........
    ..........
    ..........
    ..........
    ..........
    ..........
    ..........
    ..........
    ..........
    ..........
    .....@@...
    ....@.....
    .....@@...
    ....@.....
    ..........
    ..........
    ....@@....
    ...@@@@...
    ..@...@@..
    .......@..
    ..........
    ..........
    ..........
    ..........
    ..........
    ..........
    ..........
    ..........
    ..........

0xa0:
uni00A0:
    ........
    ........
    ........
    ........
    ........
    ........
    ........
    ........
    ........
    ........
    ...@.@..
    ...@.@..
    ........
    ........
    ....@...
    ....@@..
    ...@.@..
    ..@..@..
    ..@..@..
    ...@@...
    ........
    ........
    ........
    ........
    ........
    ........
    ........
    ........
    ........

0xa1:
uni00A1:
    ..........
    ..........
    ..........
    ..........
    ..........
    ..........
    ..........
    ..........
    ..........
    ..........
    ....@.@...
    ....@.@...
    ..........
    ..........
    ....@@....
    ...@@@@...
    ..@...@@..
    .......@..
    ..........
    ..........
    ..........
    ..........
    ..........
    ..........
    ..........
    ..........
    ..........
    ..........
    ..........

0xa2:
uni00A2:
    ............
    ............
    ............
    ............
    ............
    ............
    ............
    ......@.....
    .....@.@....
    .....@.@....
    .....@@@....
    ....@..@....
    ...@.@.@....
    .@..@.@.....
    ..@@@@......
    ............
    ............
    ............
    ............
    ............
    ............
    ............
    ............
    ............
    ............
    ............
    ............
    ............
    ............

0xa3:
uni00A3:
    .............
    .............
    .............
    .............
    .............
    .............
    .......@.....
    ......@.@....
    ......@.@....
    .......@@@@..
    .....@..@....
    ....@.@.@....
    ..@..@.@.....
    ...@@@@......
    .............
    .............
    .............
    .............
    .............
    .............
    .............
    .............
    .............
    .............
    .............
    .............
    .............
    .............
    .............

0xa4:
uni00A4:
    ............
    ............
    ............
    ............
    ............
    ............
    ............
    .....@.@....
    .....@.@....
    ............
    ............
    ......@.....
    .....@.@....
    .....@.@....
    .....@@@....
    .......@....
    .......@....
    .@....@.....
    ..@@@@......
    ............
    ............
    ............
    ............
    ............
    ............
    ............
    ............
    ............
    ............

0xa5:
uni00A5:
    .............
    .............
    .............
    .............
    .............
    .............
    ......@.@....
    ......@.@....
    .............
    .............
    .......@.....
    ......@.@....
    ......@.@....
    .......@@@@..
    ........@....
    ........@....
    ..@....@.....
    ...@@@@......
    .............
    .............
    .............
    .............
    .............
    .............
    .............
    .............
    .............
    .............
    .............

0xa6:
uni00A6:
    ................
    ................
    ................
    ................
    ................
    ................
    ................
    ................
    ..........@@@@..
    .........@......
    ....@....@......
    ...@......@@....
    ..@@........@...
    .@.@........@...
    ....@.....@@....
    .....@@@@@......
    ................
    ................
    ................
    ................
    ................
    ................
    ................
    ................
    ................
    ................
    ................
    ................
    ................

0xa7:
uni00A7:
    .................
    .................
    .................
    .................
    .................
    .....@.....@@@@..
    ....@.....@......
    ...@@......@@....
    ..@.@........@...
    .....@.....@@....
    ......@@@@@......
    .................
    .................
    .................
    .................
    .................
    .................
    .................
    .................
    .................
    .................
    .................
    .................
    .................
    .................
    .................
    .................
    .................
    .................

0xa8:
uni00A8:
    ..............
    ..............
    ..............
    ..............
    ..............
    ..............
    ..............
    ..............
    ..@...@.......
    ...@.@........
    ....@.........
    ........@@@@..
    .......@......
    ..@....@......
    .@......@@....
    .@........@...
    .@........@...
    ..@.....@@....
    ...@@@@@......
    ..............
    ..............
    ..............
    ..............
    ..............
    ..............
    ..............
    ..............
    ..............
    ..............

0xa9:
uni00A9:
    ...............
    ...............
    ...............
    ...............
    ...............
    ....@...@......
    .....@.@.......
    ......@........
    ...............
    ...............
    ...@.....@@@@..
    ..@.....@......
    ..@......@@....
    ..@........@...
    ...@.....@@....
    ....@@@@@......
    ...............
    ...............
    ...............
    ...............
    ...............
    ...............
    ...............
    ...............
    ...............
    ...............
    ...............
    ...............
    ...............

0xaa:
uni00AA:
    .........
    .........
    .........
    .........
    .........
    .........
    .........
    .........
    .........
    .........
    ..@...@..
    ...@.@...
    ....@....
    .........
    .........
    ....@....
    .....@...
    .....@...
    .....@...
    .@@@@....
    .........
    .........
    .........
    .........
    .........
    .........
    .........
    .........
    .........

0xab:
uni00AB:
    .........
    .........
    .........
    .........
    .........
    .........
    .........
    .........
    .........
    .........
    ..@...@..
    ...@.@...
    ....@....
    .........
    .........
    ....@....
    ....@....
    ....@....
    .@@@.@@..
    .........
    .........
    .........
    .........
    .........
    .........
    .........
    .........
    .........
    .........

0xac:
uni00AC:
    ...............
    ...............
    ...............
    .........@@@@..
    ........@......
    ...@....@......
    ..@......@@....
    ..@........@...
    ..@........@...
    ...@.....@@....
    ....@@@@@......
    ...............
    ....@.@........
    ....@.@........
    .....@.........
    .....@.........
    ...............
    ...............
    ...............
    ...............
    ...............
    ...............
    ...............
    ...............
    ...............
    ...............
    ...............
    ...............
    ...............

0xad:
uni00AD:
    ...@.....@@@@.
    ..@.....@.....
    ..@......@@...
    ..@........@..
    ...@.....@@...
    ....@@@@@.....
    ..............
    ....@.@.......
    ....@.@.......
    .....@........
    .....@........
    ..............
    ..............
    ..............
    ..............
    ..............
    ..............
    ..............
    ..............
    ..............
    ..............
    ..............
    ..............
    ..............
    ..............
    ..............
    ..............
    ..............
    ..............

0xae:
uni00AE:
    .........
    .........
    .........
    .........
    .........
    ....@....
    .....@...
    .....@...
    .....@...
    .@@@@....
    .........
    ..@.@....
    ..@.@....
    ...@.....
    ...@.....
    .........
    .........
    .........
    .........
    .........
    .........
    .........
    .........
    .........
    .........
    .........
    .........
    .........
    .........

0xaf:
uni00AF:
    .........
    .........
    .........
    .........
    .........
    ....@....
    ....@....
    ....@....
    .@@@.@@..
    .........
    ...@.@...
    ...@.@...
    ....@....
    ....@....
    .........
    .........
    .........
    .........
    .........
    .........
    .........
    .........
    .........
    .........
    .........
    .........
    .........
    .........
    .........

0xb0:
uni00B0:
    .........
    .........
    .........
    .........
    .........
    .........
    .........
    .........
    .........
    .........
    ....@....
    .....@...
    .....@...
    .....@...
    .@@@@....
    .........
    .........
    .........
    .........
    .........
    .........
    .........
    .........
    .........
    .........
    .........
    .........
    .........
    .........

0xb1:
uni00B1:
    .........
    .........
    .........
    .........
    .........
    .........
    .........
    .........
    .........
    .........
    ....@....
    ....@....
    ....@....
    .@@@.@@..
    .........
    .........
    .........
    .........
    .........
    .........
    .........
    .........
    .........
    .........
    .........
    .........
    .........
    .........
    .........

0xb2:
uni00B2:
    .............
    .............
    .............
    .............
    .............
    .............
    .....@...@@..
    ....@.@.@....
    .....@...@@..
    ....@.@.@....
    ...@.........
    .............
    .......@.....
    ......@.@....
    ......@.@....
    .......@@@@..
    ........@....
    ........@....
    ..@....@.....
    ...@@@@......
    .............
    .............
    .............
    .............
    .............
    .............
    .............
    .............
    .............

0xb3:
uni00B3:
    ...................
    ...................
    ...................
    ...................
    ...................
    .............@.....
    .............@.....
    ............@.@....
    ............@.@....
    ...................
    ................@..
    .............@..@..
    .........@...@..@..
    ...@......@@@.@@...
    ..@.......@........
    ..@.......@........
    ..@.......@...@....
    ...@....@@....@....
    ....@@@@...........
    ...................
    ...................
    ...................
    ...................
    ...................
    ...................
    ...................
    ...................
    ...................
    ...................

0xb4:
uni00B4:
    ....................
    ....................
    ....................
    ....................
    ....................
    .............@......
    .............@......
    ............@.@.....
    ............@.@.....
    ....................
    ................@...
    .........@...@..@...
    ...@......@@@.@@.@@.
    ..@.......@.........
    ..@.......@.........
    ..@.......@...@.....
    ...@....@@....@.....
    ....@@@@............
    ....................
    ....................
    ....................
    ....................
    ....................
    ....................
    ....................
    ....................
    ....................
    ....................
    ....................

0xb5:
uni00B5:
    ...............
    ...............
    ...............
    ...............
    ...............
    ...............
    ........@......
    ........@......
    .......@.@.....
    .......@.@.....
    ...............
    ...........@...
    ........@..@...
    ....@...@..@...
    .@@@.@@@.@@....
    ...............
    ...............
    .........@.....
    .........@.....
    ...............
    ...............
    ...............
    ...............
    ...............
    ...............
    ...............
    ...............
    ...............
    ...............

0xb6:
uni00B6:
    ................
    ................
    ................
    ................
    ................
    ................
    ........@.......
    ........@.......
    .......@.@......
    .......@.@......
    ................
    ................
    ........@.......
    ....@...@..@....
    .@@@.@@@.@@.@@..
    ................
    ................
    .........@......
    .........@......
    ................
    ................
    ................
    ................
    ................
    ................
    ................
    ................
    ................
    ................

0xb7:
uni00B7:
    .....................
    .....................
    .....................
    .....................
    .....................
    ............@........
    ............@........
    ...............@@@...
    ..............@...@..
    .............@....@..
    .........@..@..@@@...
    ...@......@@@@@......
    ..@.......@@.........
    ..@.......@..........
    ..@.......@....@.....
    ...@....@@.....@.....
    ....@@@@.............
    .....................
    .....................
    .....................
    .....................
    .....................
    .....................
    .....................
    .....................
    .....................
    .....................
    .....................
    .....................

0xb8:
uni00B8:
    .....................
    .....................
    .....................
    .....................
    .....................
    ............@........
    ............@........
    ...............@@@...
    ..............@...@..
    .............@....@..
    .........@..@....@...
    ...@......@@@@@@@@@@.
    ..@.......@@.........
    ..@.......@..........
    ..@.......@....@.....
    ...@....@@.....@.....
    ....@@@@.............
    .....................
    .....................
    .....................
    .....................
    .....................
    .....................
    .....................
    .....................
    .....................
    .....................
    .....................
    .....................

0xb9:
uni00B9:
    .................
    .................
    .................
    .................
    .................
    .................
    .......@.........
    .......@.........
    ..........@@@....
    .........@...@...
    ........@....@...
    ...@...@..@@@....
    .@@.@@@@@@.......
    ......@..........
    .................
    ..........@......
    ..........@......
    .................
    .................
    .................
    .................
    .................
    .................
    .................
    .................
    .................
    .................
    .................
    .................

0xba:
uni00BA:
    ................
    ................
    ................
    ................
    ................
    ................
    ......@.........
    ......@.........
    .........@@@....
    ........@...@...
    .......@....@...
    ...@..@....@....
    .@@.@@@@@@@@@@..
    .....@..........
    ................
    .........@......
    .........@......
    ................
    ................
    ................
    ................
    ................
    ................
    ................
    ................
    ................
    ................
    ................
    ................

0xbb:
uni00BB:
    .............
    .............
    .............
    ....@........
    ....@........
    .............
    .............
    ....@@@......
    ...@.........
    ..@..........
    ...@..@@.....
    ....@@.......
    ...@.........
    ...@.........
    ..@...@......
    ..@...@......
    ..@..........
    ...@.....@@..
    ....@@@@@....
    .............
    .............
    .............
    .............
    .............
    .............
    .............
    .............
    .............
    .............

0xbc:
uni00BC:
    ............
    ............
    ............
    ............
    .....@......
    .....@......
    ............
    ............
    ....@@@.....
    ...@@.@@....
    .....@......
    ....@@@.....
    ...@...@@@@.
    ...@........
    ..@...@.....
    ..@...@.....
    ..@.........
    ...@.....@@.
    ....@@@@@...
    ............
    ............
    ............
    ............
    ............
    ............
    ............
    ............
    ............
    ............

0xbd:
uni00BD:
    ..........
    ..........
    ..........
    ..........
    ..........
    ..........
    ....@.....
    ....@.....
    ..........
    ..........
    ....@@@...
    ...@......
    ..@.......
    ...@..@@..
    .@@@@@....
    ..........
    ..........
    ....@.....
    ....@.....
    ..........
    ..........
    ..........
    ..........
    ..........
    ..........
    ..........
    ..........
    ..........
    ..........

0xbe:
uni00BE:
    ...........
    ...........
    ...........
    ...........
    ...........
    ...........
    .....@.....
    .....@.....
    ...........
    ...........
    ....@@@....
    ...@@.@@...
    .....@.....
    ....@@@....
    .@@@...@@..
    ...........
    ...........
    .....@.....
    .....@.....
    ...........
    ...........
    ...........
    ...........
    ...........
    ...........
    ...........
    ...........
    ...........
    ...........

0xd0:
uni00D0:
    ............
    ............
    ............
    ............
    ............
    ............
    ............
    ............
    ............
    ............
    .....@...@..
    ......@.@...
    .......@....
    ............
    ............
    ..@@...@....
    ..@@@..@@...
    ....@..@....
    .....@.@....
    .....@.@....
    ......@.....
    ......@@....
    .....@.@....
    ....@..@....
    ....@@@.....
    ............
    ............
    ............
    ............

0xd1:
uni00D1:
    ..............
    ..............
    ..............
    ..............
    ..............
    ..............
    ..............
    ..............
    ..............
    ......@...@...
    .......@.@....
    ........@.....
    ..............
    ..............
    ........@.....
    ...@@...@@....
    ...@@@..@.....
    .....@..@.....
    ......@.@.....
    ......@.@.....
    ......@.@.....
    ......@@.@....
    ......@..@....
    ....@@....@@..
    ..@@@.........
    ..............
    ..............
    ..............
    ..............

0xd2:
uni00D2:
    ............
    ............
    ............
    ............
    ............
    ............
    ............
    ............
    ............
    ............
    .......@....
    .......@....
    ............
    ............
    ..@@...@....
    ..@@@..@@...
    ....@..@....
    .....@.@....
    .....@.@....
    ......@.....
    ......@@....
    .....@.@....
    ....@..@....
    ....@@@.....
    ............
    ............
    ............
    ............
    ............

0xd3:
uni00D3:
    ..............
    ..............
    ..............
    ..............
    ..............
    ..............
    ..............
    ..............
    ..............
    ........@.....
    ........@.....
    ..............
    ..............
    ........@.....
    ...@@...@@....
    ...@@@..@.....
    .....@..@.....
    ......@.@.....
    ......@.@.....
    ......@.@.....
    ......@@.@....
    ......@..@....
    ....@@....@@..
    ..@@@.........
    ..............
    ..............
    ..............
    ..............
    ..............

0xd4:
uni00D4:
    ............
    ............
    ............
    ............
    ............
    ............
    ............
    ............
    ............
    ............
    .......@....
    .......@....
    ......@.@...
    ......@.@...
    ............
    ............
    ..@@...@....
    ..@@@..@@...
    ....@..@....
    .....@.@....
    .....@.@....
    ......@.....
    ......@@....
    .....@.@....
    ....@..@....
    ....@@@.....
    ............
    ............
    ............

0xd5:
uni00D5:
    ..............
    ..............
    ..............
    ..............
    ..............
    ..............
    ..............
    ..............
    ..............
    ........@.....
    ........@.....
    .......@.@....
    .......@.@....
    ..............
    ..............
    ........@.....
    ...@@...@@....
    ...@@@..@.....
    .....@..@.....
    ......@.@.....
    ......@.@.....
    ......@.@.....
    ......@@.@....
    ......@..@....
    ....@@....@@..
    ..@@@.........
    ..............
    ..............
    ..............

0xf0:
uni00F0:
    ........................
    ........................
    ........................
    ........................
    ........................
    ........................
    ........@.@.............
    ........@.@.............
    ........@.@@............
    ........@.@.............
    ........@.@.............
    ........@.@.............
    ........@.@...@....@....
    ........@.@....@...@@...
    ..@.....@.@....@....@...
    ..@.....@.@....@....@...
    ..@.....@..@@@@.....@...
    ...@...@...........@....
    ....@@@....@.@@...@@....
    ...........@.@.@@@@.....
    ........................
    ........................
    ........................
    ........................
    ........................
    ........................
    ........................
    ........................
    ........................

